G04 #@! TF.GenerationSoftware,KiCad,Pcbnew,(5.1.5-0-10_14)*
G04 #@! TF.CreationDate,2021-02-08T21:24:19-05:00*
G04 #@! TF.ProjectId,apple-ii-breadboard-card,6170706c-652d-4696-992d-627265616462,1.1*
G04 #@! TF.SameCoordinates,Original*
G04 #@! TF.FileFunction,Soldermask,Top*
G04 #@! TF.FilePolarity,Negative*
%FSLAX46Y46*%
G04 Gerber Fmt 4.6, Leading zero omitted, Abs format (unit mm)*
G04 Created by KiCad (PCBNEW (5.1.5-0-10_14)) date 2021-02-08 21:24:19*
%MOMM*%
%LPD*%
G04 APERTURE LIST*
%ADD10C,0.100000*%
G04 APERTURE END LIST*
D10*
G36*
X233553000Y-124587000D02*
G01*
X232537000Y-124587000D01*
X232537000Y-132207000D01*
X233553000Y-132207000D01*
X233553000Y-124587000D01*
G37*
G36*
X167767000Y-124587000D02*
G01*
X167767000Y-132207000D01*
X168783000Y-132207000D01*
X168783000Y-124587000D01*
X167767000Y-124587000D01*
G37*
G36*
X232537000Y-132207000D02*
G01*
X168783000Y-132207000D01*
X168783000Y-124587000D01*
X232537000Y-124587000D01*
X232537000Y-132207000D01*
G37*
G36*
X200773512Y-118483927D02*
G01*
X200922812Y-118513624D01*
X201086784Y-118581544D01*
X201234354Y-118680147D01*
X201359853Y-118805646D01*
X201458456Y-118953216D01*
X201526376Y-119117188D01*
X201561000Y-119291259D01*
X201561000Y-119468741D01*
X201526376Y-119642812D01*
X201458456Y-119806784D01*
X201359853Y-119954354D01*
X201234354Y-120079853D01*
X201086784Y-120178456D01*
X200922812Y-120246376D01*
X200773512Y-120276073D01*
X200748742Y-120281000D01*
X200571258Y-120281000D01*
X200546488Y-120276073D01*
X200397188Y-120246376D01*
X200233216Y-120178456D01*
X200085646Y-120079853D01*
X199960147Y-119954354D01*
X199861544Y-119806784D01*
X199793624Y-119642812D01*
X199759000Y-119468741D01*
X199759000Y-119291259D01*
X199793624Y-119117188D01*
X199861544Y-118953216D01*
X199960147Y-118805646D01*
X200085646Y-118680147D01*
X200233216Y-118581544D01*
X200397188Y-118513624D01*
X200546488Y-118483927D01*
X200571258Y-118479000D01*
X200748742Y-118479000D01*
X200773512Y-118483927D01*
G37*
G36*
X231253512Y-118483927D02*
G01*
X231402812Y-118513624D01*
X231566784Y-118581544D01*
X231714354Y-118680147D01*
X231839853Y-118805646D01*
X231938456Y-118953216D01*
X232006376Y-119117188D01*
X232041000Y-119291259D01*
X232041000Y-119468741D01*
X232006376Y-119642812D01*
X231938456Y-119806784D01*
X231839853Y-119954354D01*
X231714354Y-120079853D01*
X231566784Y-120178456D01*
X231402812Y-120246376D01*
X231253512Y-120276073D01*
X231228742Y-120281000D01*
X231051258Y-120281000D01*
X231026488Y-120276073D01*
X230877188Y-120246376D01*
X230713216Y-120178456D01*
X230565646Y-120079853D01*
X230440147Y-119954354D01*
X230341544Y-119806784D01*
X230273624Y-119642812D01*
X230239000Y-119468741D01*
X230239000Y-119291259D01*
X230273624Y-119117188D01*
X230341544Y-118953216D01*
X230440147Y-118805646D01*
X230565646Y-118680147D01*
X230713216Y-118581544D01*
X230877188Y-118513624D01*
X231026488Y-118483927D01*
X231051258Y-118479000D01*
X231228742Y-118479000D01*
X231253512Y-118483927D01*
G37*
G36*
X228713512Y-118483927D02*
G01*
X228862812Y-118513624D01*
X229026784Y-118581544D01*
X229174354Y-118680147D01*
X229299853Y-118805646D01*
X229398456Y-118953216D01*
X229466376Y-119117188D01*
X229501000Y-119291259D01*
X229501000Y-119468741D01*
X229466376Y-119642812D01*
X229398456Y-119806784D01*
X229299853Y-119954354D01*
X229174354Y-120079853D01*
X229026784Y-120178456D01*
X228862812Y-120246376D01*
X228713512Y-120276073D01*
X228688742Y-120281000D01*
X228511258Y-120281000D01*
X228486488Y-120276073D01*
X228337188Y-120246376D01*
X228173216Y-120178456D01*
X228025646Y-120079853D01*
X227900147Y-119954354D01*
X227801544Y-119806784D01*
X227733624Y-119642812D01*
X227699000Y-119468741D01*
X227699000Y-119291259D01*
X227733624Y-119117188D01*
X227801544Y-118953216D01*
X227900147Y-118805646D01*
X228025646Y-118680147D01*
X228173216Y-118581544D01*
X228337188Y-118513624D01*
X228486488Y-118483927D01*
X228511258Y-118479000D01*
X228688742Y-118479000D01*
X228713512Y-118483927D01*
G37*
G36*
X226173512Y-118483927D02*
G01*
X226322812Y-118513624D01*
X226486784Y-118581544D01*
X226634354Y-118680147D01*
X226759853Y-118805646D01*
X226858456Y-118953216D01*
X226926376Y-119117188D01*
X226961000Y-119291259D01*
X226961000Y-119468741D01*
X226926376Y-119642812D01*
X226858456Y-119806784D01*
X226759853Y-119954354D01*
X226634354Y-120079853D01*
X226486784Y-120178456D01*
X226322812Y-120246376D01*
X226173512Y-120276073D01*
X226148742Y-120281000D01*
X225971258Y-120281000D01*
X225946488Y-120276073D01*
X225797188Y-120246376D01*
X225633216Y-120178456D01*
X225485646Y-120079853D01*
X225360147Y-119954354D01*
X225261544Y-119806784D01*
X225193624Y-119642812D01*
X225159000Y-119468741D01*
X225159000Y-119291259D01*
X225193624Y-119117188D01*
X225261544Y-118953216D01*
X225360147Y-118805646D01*
X225485646Y-118680147D01*
X225633216Y-118581544D01*
X225797188Y-118513624D01*
X225946488Y-118483927D01*
X225971258Y-118479000D01*
X226148742Y-118479000D01*
X226173512Y-118483927D01*
G37*
G36*
X223633512Y-118483927D02*
G01*
X223782812Y-118513624D01*
X223946784Y-118581544D01*
X224094354Y-118680147D01*
X224219853Y-118805646D01*
X224318456Y-118953216D01*
X224386376Y-119117188D01*
X224421000Y-119291259D01*
X224421000Y-119468741D01*
X224386376Y-119642812D01*
X224318456Y-119806784D01*
X224219853Y-119954354D01*
X224094354Y-120079853D01*
X223946784Y-120178456D01*
X223782812Y-120246376D01*
X223633512Y-120276073D01*
X223608742Y-120281000D01*
X223431258Y-120281000D01*
X223406488Y-120276073D01*
X223257188Y-120246376D01*
X223093216Y-120178456D01*
X222945646Y-120079853D01*
X222820147Y-119954354D01*
X222721544Y-119806784D01*
X222653624Y-119642812D01*
X222619000Y-119468741D01*
X222619000Y-119291259D01*
X222653624Y-119117188D01*
X222721544Y-118953216D01*
X222820147Y-118805646D01*
X222945646Y-118680147D01*
X223093216Y-118581544D01*
X223257188Y-118513624D01*
X223406488Y-118483927D01*
X223431258Y-118479000D01*
X223608742Y-118479000D01*
X223633512Y-118483927D01*
G37*
G36*
X221093512Y-118483927D02*
G01*
X221242812Y-118513624D01*
X221406784Y-118581544D01*
X221554354Y-118680147D01*
X221679853Y-118805646D01*
X221778456Y-118953216D01*
X221846376Y-119117188D01*
X221881000Y-119291259D01*
X221881000Y-119468741D01*
X221846376Y-119642812D01*
X221778456Y-119806784D01*
X221679853Y-119954354D01*
X221554354Y-120079853D01*
X221406784Y-120178456D01*
X221242812Y-120246376D01*
X221093512Y-120276073D01*
X221068742Y-120281000D01*
X220891258Y-120281000D01*
X220866488Y-120276073D01*
X220717188Y-120246376D01*
X220553216Y-120178456D01*
X220405646Y-120079853D01*
X220280147Y-119954354D01*
X220181544Y-119806784D01*
X220113624Y-119642812D01*
X220079000Y-119468741D01*
X220079000Y-119291259D01*
X220113624Y-119117188D01*
X220181544Y-118953216D01*
X220280147Y-118805646D01*
X220405646Y-118680147D01*
X220553216Y-118581544D01*
X220717188Y-118513624D01*
X220866488Y-118483927D01*
X220891258Y-118479000D01*
X221068742Y-118479000D01*
X221093512Y-118483927D01*
G37*
G36*
X218553512Y-118483927D02*
G01*
X218702812Y-118513624D01*
X218866784Y-118581544D01*
X219014354Y-118680147D01*
X219139853Y-118805646D01*
X219238456Y-118953216D01*
X219306376Y-119117188D01*
X219341000Y-119291259D01*
X219341000Y-119468741D01*
X219306376Y-119642812D01*
X219238456Y-119806784D01*
X219139853Y-119954354D01*
X219014354Y-120079853D01*
X218866784Y-120178456D01*
X218702812Y-120246376D01*
X218553512Y-120276073D01*
X218528742Y-120281000D01*
X218351258Y-120281000D01*
X218326488Y-120276073D01*
X218177188Y-120246376D01*
X218013216Y-120178456D01*
X217865646Y-120079853D01*
X217740147Y-119954354D01*
X217641544Y-119806784D01*
X217573624Y-119642812D01*
X217539000Y-119468741D01*
X217539000Y-119291259D01*
X217573624Y-119117188D01*
X217641544Y-118953216D01*
X217740147Y-118805646D01*
X217865646Y-118680147D01*
X218013216Y-118581544D01*
X218177188Y-118513624D01*
X218326488Y-118483927D01*
X218351258Y-118479000D01*
X218528742Y-118479000D01*
X218553512Y-118483927D01*
G37*
G36*
X216013512Y-118483927D02*
G01*
X216162812Y-118513624D01*
X216326784Y-118581544D01*
X216474354Y-118680147D01*
X216599853Y-118805646D01*
X216698456Y-118953216D01*
X216766376Y-119117188D01*
X216801000Y-119291259D01*
X216801000Y-119468741D01*
X216766376Y-119642812D01*
X216698456Y-119806784D01*
X216599853Y-119954354D01*
X216474354Y-120079853D01*
X216326784Y-120178456D01*
X216162812Y-120246376D01*
X216013512Y-120276073D01*
X215988742Y-120281000D01*
X215811258Y-120281000D01*
X215786488Y-120276073D01*
X215637188Y-120246376D01*
X215473216Y-120178456D01*
X215325646Y-120079853D01*
X215200147Y-119954354D01*
X215101544Y-119806784D01*
X215033624Y-119642812D01*
X214999000Y-119468741D01*
X214999000Y-119291259D01*
X215033624Y-119117188D01*
X215101544Y-118953216D01*
X215200147Y-118805646D01*
X215325646Y-118680147D01*
X215473216Y-118581544D01*
X215637188Y-118513624D01*
X215786488Y-118483927D01*
X215811258Y-118479000D01*
X215988742Y-118479000D01*
X216013512Y-118483927D01*
G37*
G36*
X213473512Y-118483927D02*
G01*
X213622812Y-118513624D01*
X213786784Y-118581544D01*
X213934354Y-118680147D01*
X214059853Y-118805646D01*
X214158456Y-118953216D01*
X214226376Y-119117188D01*
X214261000Y-119291259D01*
X214261000Y-119468741D01*
X214226376Y-119642812D01*
X214158456Y-119806784D01*
X214059853Y-119954354D01*
X213934354Y-120079853D01*
X213786784Y-120178456D01*
X213622812Y-120246376D01*
X213473512Y-120276073D01*
X213448742Y-120281000D01*
X213271258Y-120281000D01*
X213246488Y-120276073D01*
X213097188Y-120246376D01*
X212933216Y-120178456D01*
X212785646Y-120079853D01*
X212660147Y-119954354D01*
X212561544Y-119806784D01*
X212493624Y-119642812D01*
X212459000Y-119468741D01*
X212459000Y-119291259D01*
X212493624Y-119117188D01*
X212561544Y-118953216D01*
X212660147Y-118805646D01*
X212785646Y-118680147D01*
X212933216Y-118581544D01*
X213097188Y-118513624D01*
X213246488Y-118483927D01*
X213271258Y-118479000D01*
X213448742Y-118479000D01*
X213473512Y-118483927D01*
G37*
G36*
X210933512Y-118483927D02*
G01*
X211082812Y-118513624D01*
X211246784Y-118581544D01*
X211394354Y-118680147D01*
X211519853Y-118805646D01*
X211618456Y-118953216D01*
X211686376Y-119117188D01*
X211721000Y-119291259D01*
X211721000Y-119468741D01*
X211686376Y-119642812D01*
X211618456Y-119806784D01*
X211519853Y-119954354D01*
X211394354Y-120079853D01*
X211246784Y-120178456D01*
X211082812Y-120246376D01*
X210933512Y-120276073D01*
X210908742Y-120281000D01*
X210731258Y-120281000D01*
X210706488Y-120276073D01*
X210557188Y-120246376D01*
X210393216Y-120178456D01*
X210245646Y-120079853D01*
X210120147Y-119954354D01*
X210021544Y-119806784D01*
X209953624Y-119642812D01*
X209919000Y-119468741D01*
X209919000Y-119291259D01*
X209953624Y-119117188D01*
X210021544Y-118953216D01*
X210120147Y-118805646D01*
X210245646Y-118680147D01*
X210393216Y-118581544D01*
X210557188Y-118513624D01*
X210706488Y-118483927D01*
X210731258Y-118479000D01*
X210908742Y-118479000D01*
X210933512Y-118483927D01*
G37*
G36*
X208393512Y-118483927D02*
G01*
X208542812Y-118513624D01*
X208706784Y-118581544D01*
X208854354Y-118680147D01*
X208979853Y-118805646D01*
X209078456Y-118953216D01*
X209146376Y-119117188D01*
X209181000Y-119291259D01*
X209181000Y-119468741D01*
X209146376Y-119642812D01*
X209078456Y-119806784D01*
X208979853Y-119954354D01*
X208854354Y-120079853D01*
X208706784Y-120178456D01*
X208542812Y-120246376D01*
X208393512Y-120276073D01*
X208368742Y-120281000D01*
X208191258Y-120281000D01*
X208166488Y-120276073D01*
X208017188Y-120246376D01*
X207853216Y-120178456D01*
X207705646Y-120079853D01*
X207580147Y-119954354D01*
X207481544Y-119806784D01*
X207413624Y-119642812D01*
X207379000Y-119468741D01*
X207379000Y-119291259D01*
X207413624Y-119117188D01*
X207481544Y-118953216D01*
X207580147Y-118805646D01*
X207705646Y-118680147D01*
X207853216Y-118581544D01*
X208017188Y-118513624D01*
X208166488Y-118483927D01*
X208191258Y-118479000D01*
X208368742Y-118479000D01*
X208393512Y-118483927D01*
G37*
G36*
X205853512Y-118483927D02*
G01*
X206002812Y-118513624D01*
X206166784Y-118581544D01*
X206314354Y-118680147D01*
X206439853Y-118805646D01*
X206538456Y-118953216D01*
X206606376Y-119117188D01*
X206641000Y-119291259D01*
X206641000Y-119468741D01*
X206606376Y-119642812D01*
X206538456Y-119806784D01*
X206439853Y-119954354D01*
X206314354Y-120079853D01*
X206166784Y-120178456D01*
X206002812Y-120246376D01*
X205853512Y-120276073D01*
X205828742Y-120281000D01*
X205651258Y-120281000D01*
X205626488Y-120276073D01*
X205477188Y-120246376D01*
X205313216Y-120178456D01*
X205165646Y-120079853D01*
X205040147Y-119954354D01*
X204941544Y-119806784D01*
X204873624Y-119642812D01*
X204839000Y-119468741D01*
X204839000Y-119291259D01*
X204873624Y-119117188D01*
X204941544Y-118953216D01*
X205040147Y-118805646D01*
X205165646Y-118680147D01*
X205313216Y-118581544D01*
X205477188Y-118513624D01*
X205626488Y-118483927D01*
X205651258Y-118479000D01*
X205828742Y-118479000D01*
X205853512Y-118483927D01*
G37*
G36*
X203313512Y-118483927D02*
G01*
X203462812Y-118513624D01*
X203626784Y-118581544D01*
X203774354Y-118680147D01*
X203899853Y-118805646D01*
X203998456Y-118953216D01*
X204066376Y-119117188D01*
X204101000Y-119291259D01*
X204101000Y-119468741D01*
X204066376Y-119642812D01*
X203998456Y-119806784D01*
X203899853Y-119954354D01*
X203774354Y-120079853D01*
X203626784Y-120178456D01*
X203462812Y-120246376D01*
X203313512Y-120276073D01*
X203288742Y-120281000D01*
X203111258Y-120281000D01*
X203086488Y-120276073D01*
X202937188Y-120246376D01*
X202773216Y-120178456D01*
X202625646Y-120079853D01*
X202500147Y-119954354D01*
X202401544Y-119806784D01*
X202333624Y-119642812D01*
X202299000Y-119468741D01*
X202299000Y-119291259D01*
X202333624Y-119117188D01*
X202401544Y-118953216D01*
X202500147Y-118805646D01*
X202625646Y-118680147D01*
X202773216Y-118581544D01*
X202937188Y-118513624D01*
X203086488Y-118483927D01*
X203111258Y-118479000D01*
X203288742Y-118479000D01*
X203313512Y-118483927D01*
G37*
G36*
X198233512Y-118483927D02*
G01*
X198382812Y-118513624D01*
X198546784Y-118581544D01*
X198694354Y-118680147D01*
X198819853Y-118805646D01*
X198918456Y-118953216D01*
X198986376Y-119117188D01*
X199021000Y-119291259D01*
X199021000Y-119468741D01*
X198986376Y-119642812D01*
X198918456Y-119806784D01*
X198819853Y-119954354D01*
X198694354Y-120079853D01*
X198546784Y-120178456D01*
X198382812Y-120246376D01*
X198233512Y-120276073D01*
X198208742Y-120281000D01*
X198031258Y-120281000D01*
X198006488Y-120276073D01*
X197857188Y-120246376D01*
X197693216Y-120178456D01*
X197545646Y-120079853D01*
X197420147Y-119954354D01*
X197321544Y-119806784D01*
X197253624Y-119642812D01*
X197219000Y-119468741D01*
X197219000Y-119291259D01*
X197253624Y-119117188D01*
X197321544Y-118953216D01*
X197420147Y-118805646D01*
X197545646Y-118680147D01*
X197693216Y-118581544D01*
X197857188Y-118513624D01*
X198006488Y-118483927D01*
X198031258Y-118479000D01*
X198208742Y-118479000D01*
X198233512Y-118483927D01*
G37*
G36*
X195693512Y-118483927D02*
G01*
X195842812Y-118513624D01*
X196006784Y-118581544D01*
X196154354Y-118680147D01*
X196279853Y-118805646D01*
X196378456Y-118953216D01*
X196446376Y-119117188D01*
X196481000Y-119291259D01*
X196481000Y-119468741D01*
X196446376Y-119642812D01*
X196378456Y-119806784D01*
X196279853Y-119954354D01*
X196154354Y-120079853D01*
X196006784Y-120178456D01*
X195842812Y-120246376D01*
X195693512Y-120276073D01*
X195668742Y-120281000D01*
X195491258Y-120281000D01*
X195466488Y-120276073D01*
X195317188Y-120246376D01*
X195153216Y-120178456D01*
X195005646Y-120079853D01*
X194880147Y-119954354D01*
X194781544Y-119806784D01*
X194713624Y-119642812D01*
X194679000Y-119468741D01*
X194679000Y-119291259D01*
X194713624Y-119117188D01*
X194781544Y-118953216D01*
X194880147Y-118805646D01*
X195005646Y-118680147D01*
X195153216Y-118581544D01*
X195317188Y-118513624D01*
X195466488Y-118483927D01*
X195491258Y-118479000D01*
X195668742Y-118479000D01*
X195693512Y-118483927D01*
G37*
G36*
X193153512Y-118483927D02*
G01*
X193302812Y-118513624D01*
X193466784Y-118581544D01*
X193614354Y-118680147D01*
X193739853Y-118805646D01*
X193838456Y-118953216D01*
X193906376Y-119117188D01*
X193941000Y-119291259D01*
X193941000Y-119468741D01*
X193906376Y-119642812D01*
X193838456Y-119806784D01*
X193739853Y-119954354D01*
X193614354Y-120079853D01*
X193466784Y-120178456D01*
X193302812Y-120246376D01*
X193153512Y-120276073D01*
X193128742Y-120281000D01*
X192951258Y-120281000D01*
X192926488Y-120276073D01*
X192777188Y-120246376D01*
X192613216Y-120178456D01*
X192465646Y-120079853D01*
X192340147Y-119954354D01*
X192241544Y-119806784D01*
X192173624Y-119642812D01*
X192139000Y-119468741D01*
X192139000Y-119291259D01*
X192173624Y-119117188D01*
X192241544Y-118953216D01*
X192340147Y-118805646D01*
X192465646Y-118680147D01*
X192613216Y-118581544D01*
X192777188Y-118513624D01*
X192926488Y-118483927D01*
X192951258Y-118479000D01*
X193128742Y-118479000D01*
X193153512Y-118483927D01*
G37*
G36*
X190613512Y-118483927D02*
G01*
X190762812Y-118513624D01*
X190926784Y-118581544D01*
X191074354Y-118680147D01*
X191199853Y-118805646D01*
X191298456Y-118953216D01*
X191366376Y-119117188D01*
X191401000Y-119291259D01*
X191401000Y-119468741D01*
X191366376Y-119642812D01*
X191298456Y-119806784D01*
X191199853Y-119954354D01*
X191074354Y-120079853D01*
X190926784Y-120178456D01*
X190762812Y-120246376D01*
X190613512Y-120276073D01*
X190588742Y-120281000D01*
X190411258Y-120281000D01*
X190386488Y-120276073D01*
X190237188Y-120246376D01*
X190073216Y-120178456D01*
X189925646Y-120079853D01*
X189800147Y-119954354D01*
X189701544Y-119806784D01*
X189633624Y-119642812D01*
X189599000Y-119468741D01*
X189599000Y-119291259D01*
X189633624Y-119117188D01*
X189701544Y-118953216D01*
X189800147Y-118805646D01*
X189925646Y-118680147D01*
X190073216Y-118581544D01*
X190237188Y-118513624D01*
X190386488Y-118483927D01*
X190411258Y-118479000D01*
X190588742Y-118479000D01*
X190613512Y-118483927D01*
G37*
G36*
X188073512Y-118483927D02*
G01*
X188222812Y-118513624D01*
X188386784Y-118581544D01*
X188534354Y-118680147D01*
X188659853Y-118805646D01*
X188758456Y-118953216D01*
X188826376Y-119117188D01*
X188861000Y-119291259D01*
X188861000Y-119468741D01*
X188826376Y-119642812D01*
X188758456Y-119806784D01*
X188659853Y-119954354D01*
X188534354Y-120079853D01*
X188386784Y-120178456D01*
X188222812Y-120246376D01*
X188073512Y-120276073D01*
X188048742Y-120281000D01*
X187871258Y-120281000D01*
X187846488Y-120276073D01*
X187697188Y-120246376D01*
X187533216Y-120178456D01*
X187385646Y-120079853D01*
X187260147Y-119954354D01*
X187161544Y-119806784D01*
X187093624Y-119642812D01*
X187059000Y-119468741D01*
X187059000Y-119291259D01*
X187093624Y-119117188D01*
X187161544Y-118953216D01*
X187260147Y-118805646D01*
X187385646Y-118680147D01*
X187533216Y-118581544D01*
X187697188Y-118513624D01*
X187846488Y-118483927D01*
X187871258Y-118479000D01*
X188048742Y-118479000D01*
X188073512Y-118483927D01*
G37*
G36*
X185533512Y-118483927D02*
G01*
X185682812Y-118513624D01*
X185846784Y-118581544D01*
X185994354Y-118680147D01*
X186119853Y-118805646D01*
X186218456Y-118953216D01*
X186286376Y-119117188D01*
X186321000Y-119291259D01*
X186321000Y-119468741D01*
X186286376Y-119642812D01*
X186218456Y-119806784D01*
X186119853Y-119954354D01*
X185994354Y-120079853D01*
X185846784Y-120178456D01*
X185682812Y-120246376D01*
X185533512Y-120276073D01*
X185508742Y-120281000D01*
X185331258Y-120281000D01*
X185306488Y-120276073D01*
X185157188Y-120246376D01*
X184993216Y-120178456D01*
X184845646Y-120079853D01*
X184720147Y-119954354D01*
X184621544Y-119806784D01*
X184553624Y-119642812D01*
X184519000Y-119468741D01*
X184519000Y-119291259D01*
X184553624Y-119117188D01*
X184621544Y-118953216D01*
X184720147Y-118805646D01*
X184845646Y-118680147D01*
X184993216Y-118581544D01*
X185157188Y-118513624D01*
X185306488Y-118483927D01*
X185331258Y-118479000D01*
X185508742Y-118479000D01*
X185533512Y-118483927D01*
G37*
G36*
X182993512Y-118483927D02*
G01*
X183142812Y-118513624D01*
X183306784Y-118581544D01*
X183454354Y-118680147D01*
X183579853Y-118805646D01*
X183678456Y-118953216D01*
X183746376Y-119117188D01*
X183781000Y-119291259D01*
X183781000Y-119468741D01*
X183746376Y-119642812D01*
X183678456Y-119806784D01*
X183579853Y-119954354D01*
X183454354Y-120079853D01*
X183306784Y-120178456D01*
X183142812Y-120246376D01*
X182993512Y-120276073D01*
X182968742Y-120281000D01*
X182791258Y-120281000D01*
X182766488Y-120276073D01*
X182617188Y-120246376D01*
X182453216Y-120178456D01*
X182305646Y-120079853D01*
X182180147Y-119954354D01*
X182081544Y-119806784D01*
X182013624Y-119642812D01*
X181979000Y-119468741D01*
X181979000Y-119291259D01*
X182013624Y-119117188D01*
X182081544Y-118953216D01*
X182180147Y-118805646D01*
X182305646Y-118680147D01*
X182453216Y-118581544D01*
X182617188Y-118513624D01*
X182766488Y-118483927D01*
X182791258Y-118479000D01*
X182968742Y-118479000D01*
X182993512Y-118483927D01*
G37*
G36*
X180453512Y-118483927D02*
G01*
X180602812Y-118513624D01*
X180766784Y-118581544D01*
X180914354Y-118680147D01*
X181039853Y-118805646D01*
X181138456Y-118953216D01*
X181206376Y-119117188D01*
X181241000Y-119291259D01*
X181241000Y-119468741D01*
X181206376Y-119642812D01*
X181138456Y-119806784D01*
X181039853Y-119954354D01*
X180914354Y-120079853D01*
X180766784Y-120178456D01*
X180602812Y-120246376D01*
X180453512Y-120276073D01*
X180428742Y-120281000D01*
X180251258Y-120281000D01*
X180226488Y-120276073D01*
X180077188Y-120246376D01*
X179913216Y-120178456D01*
X179765646Y-120079853D01*
X179640147Y-119954354D01*
X179541544Y-119806784D01*
X179473624Y-119642812D01*
X179439000Y-119468741D01*
X179439000Y-119291259D01*
X179473624Y-119117188D01*
X179541544Y-118953216D01*
X179640147Y-118805646D01*
X179765646Y-118680147D01*
X179913216Y-118581544D01*
X180077188Y-118513624D01*
X180226488Y-118483927D01*
X180251258Y-118479000D01*
X180428742Y-118479000D01*
X180453512Y-118483927D01*
G37*
G36*
X177913512Y-118483927D02*
G01*
X178062812Y-118513624D01*
X178226784Y-118581544D01*
X178374354Y-118680147D01*
X178499853Y-118805646D01*
X178598456Y-118953216D01*
X178666376Y-119117188D01*
X178701000Y-119291259D01*
X178701000Y-119468741D01*
X178666376Y-119642812D01*
X178598456Y-119806784D01*
X178499853Y-119954354D01*
X178374354Y-120079853D01*
X178226784Y-120178456D01*
X178062812Y-120246376D01*
X177913512Y-120276073D01*
X177888742Y-120281000D01*
X177711258Y-120281000D01*
X177686488Y-120276073D01*
X177537188Y-120246376D01*
X177373216Y-120178456D01*
X177225646Y-120079853D01*
X177100147Y-119954354D01*
X177001544Y-119806784D01*
X176933624Y-119642812D01*
X176899000Y-119468741D01*
X176899000Y-119291259D01*
X176933624Y-119117188D01*
X177001544Y-118953216D01*
X177100147Y-118805646D01*
X177225646Y-118680147D01*
X177373216Y-118581544D01*
X177537188Y-118513624D01*
X177686488Y-118483927D01*
X177711258Y-118479000D01*
X177888742Y-118479000D01*
X177913512Y-118483927D01*
G37*
G36*
X175373512Y-118483927D02*
G01*
X175522812Y-118513624D01*
X175686784Y-118581544D01*
X175834354Y-118680147D01*
X175959853Y-118805646D01*
X176058456Y-118953216D01*
X176126376Y-119117188D01*
X176161000Y-119291259D01*
X176161000Y-119468741D01*
X176126376Y-119642812D01*
X176058456Y-119806784D01*
X175959853Y-119954354D01*
X175834354Y-120079853D01*
X175686784Y-120178456D01*
X175522812Y-120246376D01*
X175373512Y-120276073D01*
X175348742Y-120281000D01*
X175171258Y-120281000D01*
X175146488Y-120276073D01*
X174997188Y-120246376D01*
X174833216Y-120178456D01*
X174685646Y-120079853D01*
X174560147Y-119954354D01*
X174461544Y-119806784D01*
X174393624Y-119642812D01*
X174359000Y-119468741D01*
X174359000Y-119291259D01*
X174393624Y-119117188D01*
X174461544Y-118953216D01*
X174560147Y-118805646D01*
X174685646Y-118680147D01*
X174833216Y-118581544D01*
X174997188Y-118513624D01*
X175146488Y-118483927D01*
X175171258Y-118479000D01*
X175348742Y-118479000D01*
X175373512Y-118483927D01*
G37*
G36*
X172833512Y-118483927D02*
G01*
X172982812Y-118513624D01*
X173146784Y-118581544D01*
X173294354Y-118680147D01*
X173419853Y-118805646D01*
X173518456Y-118953216D01*
X173586376Y-119117188D01*
X173621000Y-119291259D01*
X173621000Y-119468741D01*
X173586376Y-119642812D01*
X173518456Y-119806784D01*
X173419853Y-119954354D01*
X173294354Y-120079853D01*
X173146784Y-120178456D01*
X172982812Y-120246376D01*
X172833512Y-120276073D01*
X172808742Y-120281000D01*
X172631258Y-120281000D01*
X172606488Y-120276073D01*
X172457188Y-120246376D01*
X172293216Y-120178456D01*
X172145646Y-120079853D01*
X172020147Y-119954354D01*
X171921544Y-119806784D01*
X171853624Y-119642812D01*
X171819000Y-119468741D01*
X171819000Y-119291259D01*
X171853624Y-119117188D01*
X171921544Y-118953216D01*
X172020147Y-118805646D01*
X172145646Y-118680147D01*
X172293216Y-118581544D01*
X172457188Y-118513624D01*
X172606488Y-118483927D01*
X172631258Y-118479000D01*
X172808742Y-118479000D01*
X172833512Y-118483927D01*
G37*
G36*
X170293512Y-118483927D02*
G01*
X170442812Y-118513624D01*
X170606784Y-118581544D01*
X170754354Y-118680147D01*
X170879853Y-118805646D01*
X170978456Y-118953216D01*
X171046376Y-119117188D01*
X171081000Y-119291259D01*
X171081000Y-119468741D01*
X171046376Y-119642812D01*
X170978456Y-119806784D01*
X170879853Y-119954354D01*
X170754354Y-120079853D01*
X170606784Y-120178456D01*
X170442812Y-120246376D01*
X170293512Y-120276073D01*
X170268742Y-120281000D01*
X170091258Y-120281000D01*
X170066488Y-120276073D01*
X169917188Y-120246376D01*
X169753216Y-120178456D01*
X169605646Y-120079853D01*
X169480147Y-119954354D01*
X169381544Y-119806784D01*
X169313624Y-119642812D01*
X169279000Y-119468741D01*
X169279000Y-119291259D01*
X169313624Y-119117188D01*
X169381544Y-118953216D01*
X169480147Y-118805646D01*
X169605646Y-118680147D01*
X169753216Y-118581544D01*
X169917188Y-118513624D01*
X170066488Y-118483927D01*
X170091258Y-118479000D01*
X170268742Y-118479000D01*
X170293512Y-118483927D01*
G37*
G36*
X231253512Y-115943927D02*
G01*
X231402812Y-115973624D01*
X231566784Y-116041544D01*
X231714354Y-116140147D01*
X231839853Y-116265646D01*
X231938456Y-116413216D01*
X232006376Y-116577188D01*
X232041000Y-116751259D01*
X232041000Y-116928741D01*
X232006376Y-117102812D01*
X231938456Y-117266784D01*
X231839853Y-117414354D01*
X231714354Y-117539853D01*
X231566784Y-117638456D01*
X231402812Y-117706376D01*
X231253512Y-117736073D01*
X231228742Y-117741000D01*
X231051258Y-117741000D01*
X231026488Y-117736073D01*
X230877188Y-117706376D01*
X230713216Y-117638456D01*
X230565646Y-117539853D01*
X230440147Y-117414354D01*
X230341544Y-117266784D01*
X230273624Y-117102812D01*
X230239000Y-116928741D01*
X230239000Y-116751259D01*
X230273624Y-116577188D01*
X230341544Y-116413216D01*
X230440147Y-116265646D01*
X230565646Y-116140147D01*
X230713216Y-116041544D01*
X230877188Y-115973624D01*
X231026488Y-115943927D01*
X231051258Y-115939000D01*
X231228742Y-115939000D01*
X231253512Y-115943927D01*
G37*
G36*
X198233512Y-115943927D02*
G01*
X198382812Y-115973624D01*
X198546784Y-116041544D01*
X198694354Y-116140147D01*
X198819853Y-116265646D01*
X198918456Y-116413216D01*
X198986376Y-116577188D01*
X199021000Y-116751259D01*
X199021000Y-116928741D01*
X198986376Y-117102812D01*
X198918456Y-117266784D01*
X198819853Y-117414354D01*
X198694354Y-117539853D01*
X198546784Y-117638456D01*
X198382812Y-117706376D01*
X198233512Y-117736073D01*
X198208742Y-117741000D01*
X198031258Y-117741000D01*
X198006488Y-117736073D01*
X197857188Y-117706376D01*
X197693216Y-117638456D01*
X197545646Y-117539853D01*
X197420147Y-117414354D01*
X197321544Y-117266784D01*
X197253624Y-117102812D01*
X197219000Y-116928741D01*
X197219000Y-116751259D01*
X197253624Y-116577188D01*
X197321544Y-116413216D01*
X197420147Y-116265646D01*
X197545646Y-116140147D01*
X197693216Y-116041544D01*
X197857188Y-115973624D01*
X198006488Y-115943927D01*
X198031258Y-115939000D01*
X198208742Y-115939000D01*
X198233512Y-115943927D01*
G37*
G36*
X200773512Y-115943927D02*
G01*
X200922812Y-115973624D01*
X201086784Y-116041544D01*
X201234354Y-116140147D01*
X201359853Y-116265646D01*
X201458456Y-116413216D01*
X201526376Y-116577188D01*
X201561000Y-116751259D01*
X201561000Y-116928741D01*
X201526376Y-117102812D01*
X201458456Y-117266784D01*
X201359853Y-117414354D01*
X201234354Y-117539853D01*
X201086784Y-117638456D01*
X200922812Y-117706376D01*
X200773512Y-117736073D01*
X200748742Y-117741000D01*
X200571258Y-117741000D01*
X200546488Y-117736073D01*
X200397188Y-117706376D01*
X200233216Y-117638456D01*
X200085646Y-117539853D01*
X199960147Y-117414354D01*
X199861544Y-117266784D01*
X199793624Y-117102812D01*
X199759000Y-116928741D01*
X199759000Y-116751259D01*
X199793624Y-116577188D01*
X199861544Y-116413216D01*
X199960147Y-116265646D01*
X200085646Y-116140147D01*
X200233216Y-116041544D01*
X200397188Y-115973624D01*
X200546488Y-115943927D01*
X200571258Y-115939000D01*
X200748742Y-115939000D01*
X200773512Y-115943927D01*
G37*
G36*
X195693512Y-115943927D02*
G01*
X195842812Y-115973624D01*
X196006784Y-116041544D01*
X196154354Y-116140147D01*
X196279853Y-116265646D01*
X196378456Y-116413216D01*
X196446376Y-116577188D01*
X196481000Y-116751259D01*
X196481000Y-116928741D01*
X196446376Y-117102812D01*
X196378456Y-117266784D01*
X196279853Y-117414354D01*
X196154354Y-117539853D01*
X196006784Y-117638456D01*
X195842812Y-117706376D01*
X195693512Y-117736073D01*
X195668742Y-117741000D01*
X195491258Y-117741000D01*
X195466488Y-117736073D01*
X195317188Y-117706376D01*
X195153216Y-117638456D01*
X195005646Y-117539853D01*
X194880147Y-117414354D01*
X194781544Y-117266784D01*
X194713624Y-117102812D01*
X194679000Y-116928741D01*
X194679000Y-116751259D01*
X194713624Y-116577188D01*
X194781544Y-116413216D01*
X194880147Y-116265646D01*
X195005646Y-116140147D01*
X195153216Y-116041544D01*
X195317188Y-115973624D01*
X195466488Y-115943927D01*
X195491258Y-115939000D01*
X195668742Y-115939000D01*
X195693512Y-115943927D01*
G37*
G36*
X203313512Y-115943927D02*
G01*
X203462812Y-115973624D01*
X203626784Y-116041544D01*
X203774354Y-116140147D01*
X203899853Y-116265646D01*
X203998456Y-116413216D01*
X204066376Y-116577188D01*
X204101000Y-116751259D01*
X204101000Y-116928741D01*
X204066376Y-117102812D01*
X203998456Y-117266784D01*
X203899853Y-117414354D01*
X203774354Y-117539853D01*
X203626784Y-117638456D01*
X203462812Y-117706376D01*
X203313512Y-117736073D01*
X203288742Y-117741000D01*
X203111258Y-117741000D01*
X203086488Y-117736073D01*
X202937188Y-117706376D01*
X202773216Y-117638456D01*
X202625646Y-117539853D01*
X202500147Y-117414354D01*
X202401544Y-117266784D01*
X202333624Y-117102812D01*
X202299000Y-116928741D01*
X202299000Y-116751259D01*
X202333624Y-116577188D01*
X202401544Y-116413216D01*
X202500147Y-116265646D01*
X202625646Y-116140147D01*
X202773216Y-116041544D01*
X202937188Y-115973624D01*
X203086488Y-115943927D01*
X203111258Y-115939000D01*
X203288742Y-115939000D01*
X203313512Y-115943927D01*
G37*
G36*
X193153512Y-115943927D02*
G01*
X193302812Y-115973624D01*
X193466784Y-116041544D01*
X193614354Y-116140147D01*
X193739853Y-116265646D01*
X193838456Y-116413216D01*
X193906376Y-116577188D01*
X193941000Y-116751259D01*
X193941000Y-116928741D01*
X193906376Y-117102812D01*
X193838456Y-117266784D01*
X193739853Y-117414354D01*
X193614354Y-117539853D01*
X193466784Y-117638456D01*
X193302812Y-117706376D01*
X193153512Y-117736073D01*
X193128742Y-117741000D01*
X192951258Y-117741000D01*
X192926488Y-117736073D01*
X192777188Y-117706376D01*
X192613216Y-117638456D01*
X192465646Y-117539853D01*
X192340147Y-117414354D01*
X192241544Y-117266784D01*
X192173624Y-117102812D01*
X192139000Y-116928741D01*
X192139000Y-116751259D01*
X192173624Y-116577188D01*
X192241544Y-116413216D01*
X192340147Y-116265646D01*
X192465646Y-116140147D01*
X192613216Y-116041544D01*
X192777188Y-115973624D01*
X192926488Y-115943927D01*
X192951258Y-115939000D01*
X193128742Y-115939000D01*
X193153512Y-115943927D01*
G37*
G36*
X205853512Y-115943927D02*
G01*
X206002812Y-115973624D01*
X206166784Y-116041544D01*
X206314354Y-116140147D01*
X206439853Y-116265646D01*
X206538456Y-116413216D01*
X206606376Y-116577188D01*
X206641000Y-116751259D01*
X206641000Y-116928741D01*
X206606376Y-117102812D01*
X206538456Y-117266784D01*
X206439853Y-117414354D01*
X206314354Y-117539853D01*
X206166784Y-117638456D01*
X206002812Y-117706376D01*
X205853512Y-117736073D01*
X205828742Y-117741000D01*
X205651258Y-117741000D01*
X205626488Y-117736073D01*
X205477188Y-117706376D01*
X205313216Y-117638456D01*
X205165646Y-117539853D01*
X205040147Y-117414354D01*
X204941544Y-117266784D01*
X204873624Y-117102812D01*
X204839000Y-116928741D01*
X204839000Y-116751259D01*
X204873624Y-116577188D01*
X204941544Y-116413216D01*
X205040147Y-116265646D01*
X205165646Y-116140147D01*
X205313216Y-116041544D01*
X205477188Y-115973624D01*
X205626488Y-115943927D01*
X205651258Y-115939000D01*
X205828742Y-115939000D01*
X205853512Y-115943927D01*
G37*
G36*
X190613512Y-115943927D02*
G01*
X190762812Y-115973624D01*
X190926784Y-116041544D01*
X191074354Y-116140147D01*
X191199853Y-116265646D01*
X191298456Y-116413216D01*
X191366376Y-116577188D01*
X191401000Y-116751259D01*
X191401000Y-116928741D01*
X191366376Y-117102812D01*
X191298456Y-117266784D01*
X191199853Y-117414354D01*
X191074354Y-117539853D01*
X190926784Y-117638456D01*
X190762812Y-117706376D01*
X190613512Y-117736073D01*
X190588742Y-117741000D01*
X190411258Y-117741000D01*
X190386488Y-117736073D01*
X190237188Y-117706376D01*
X190073216Y-117638456D01*
X189925646Y-117539853D01*
X189800147Y-117414354D01*
X189701544Y-117266784D01*
X189633624Y-117102812D01*
X189599000Y-116928741D01*
X189599000Y-116751259D01*
X189633624Y-116577188D01*
X189701544Y-116413216D01*
X189800147Y-116265646D01*
X189925646Y-116140147D01*
X190073216Y-116041544D01*
X190237188Y-115973624D01*
X190386488Y-115943927D01*
X190411258Y-115939000D01*
X190588742Y-115939000D01*
X190613512Y-115943927D01*
G37*
G36*
X208393512Y-115943927D02*
G01*
X208542812Y-115973624D01*
X208706784Y-116041544D01*
X208854354Y-116140147D01*
X208979853Y-116265646D01*
X209078456Y-116413216D01*
X209146376Y-116577188D01*
X209181000Y-116751259D01*
X209181000Y-116928741D01*
X209146376Y-117102812D01*
X209078456Y-117266784D01*
X208979853Y-117414354D01*
X208854354Y-117539853D01*
X208706784Y-117638456D01*
X208542812Y-117706376D01*
X208393512Y-117736073D01*
X208368742Y-117741000D01*
X208191258Y-117741000D01*
X208166488Y-117736073D01*
X208017188Y-117706376D01*
X207853216Y-117638456D01*
X207705646Y-117539853D01*
X207580147Y-117414354D01*
X207481544Y-117266784D01*
X207413624Y-117102812D01*
X207379000Y-116928741D01*
X207379000Y-116751259D01*
X207413624Y-116577188D01*
X207481544Y-116413216D01*
X207580147Y-116265646D01*
X207705646Y-116140147D01*
X207853216Y-116041544D01*
X208017188Y-115973624D01*
X208166488Y-115943927D01*
X208191258Y-115939000D01*
X208368742Y-115939000D01*
X208393512Y-115943927D01*
G37*
G36*
X188073512Y-115943927D02*
G01*
X188222812Y-115973624D01*
X188386784Y-116041544D01*
X188534354Y-116140147D01*
X188659853Y-116265646D01*
X188758456Y-116413216D01*
X188826376Y-116577188D01*
X188861000Y-116751259D01*
X188861000Y-116928741D01*
X188826376Y-117102812D01*
X188758456Y-117266784D01*
X188659853Y-117414354D01*
X188534354Y-117539853D01*
X188386784Y-117638456D01*
X188222812Y-117706376D01*
X188073512Y-117736073D01*
X188048742Y-117741000D01*
X187871258Y-117741000D01*
X187846488Y-117736073D01*
X187697188Y-117706376D01*
X187533216Y-117638456D01*
X187385646Y-117539853D01*
X187260147Y-117414354D01*
X187161544Y-117266784D01*
X187093624Y-117102812D01*
X187059000Y-116928741D01*
X187059000Y-116751259D01*
X187093624Y-116577188D01*
X187161544Y-116413216D01*
X187260147Y-116265646D01*
X187385646Y-116140147D01*
X187533216Y-116041544D01*
X187697188Y-115973624D01*
X187846488Y-115943927D01*
X187871258Y-115939000D01*
X188048742Y-115939000D01*
X188073512Y-115943927D01*
G37*
G36*
X210933512Y-115943927D02*
G01*
X211082812Y-115973624D01*
X211246784Y-116041544D01*
X211394354Y-116140147D01*
X211519853Y-116265646D01*
X211618456Y-116413216D01*
X211686376Y-116577188D01*
X211721000Y-116751259D01*
X211721000Y-116928741D01*
X211686376Y-117102812D01*
X211618456Y-117266784D01*
X211519853Y-117414354D01*
X211394354Y-117539853D01*
X211246784Y-117638456D01*
X211082812Y-117706376D01*
X210933512Y-117736073D01*
X210908742Y-117741000D01*
X210731258Y-117741000D01*
X210706488Y-117736073D01*
X210557188Y-117706376D01*
X210393216Y-117638456D01*
X210245646Y-117539853D01*
X210120147Y-117414354D01*
X210021544Y-117266784D01*
X209953624Y-117102812D01*
X209919000Y-116928741D01*
X209919000Y-116751259D01*
X209953624Y-116577188D01*
X210021544Y-116413216D01*
X210120147Y-116265646D01*
X210245646Y-116140147D01*
X210393216Y-116041544D01*
X210557188Y-115973624D01*
X210706488Y-115943927D01*
X210731258Y-115939000D01*
X210908742Y-115939000D01*
X210933512Y-115943927D01*
G37*
G36*
X185533512Y-115943927D02*
G01*
X185682812Y-115973624D01*
X185846784Y-116041544D01*
X185994354Y-116140147D01*
X186119853Y-116265646D01*
X186218456Y-116413216D01*
X186286376Y-116577188D01*
X186321000Y-116751259D01*
X186321000Y-116928741D01*
X186286376Y-117102812D01*
X186218456Y-117266784D01*
X186119853Y-117414354D01*
X185994354Y-117539853D01*
X185846784Y-117638456D01*
X185682812Y-117706376D01*
X185533512Y-117736073D01*
X185508742Y-117741000D01*
X185331258Y-117741000D01*
X185306488Y-117736073D01*
X185157188Y-117706376D01*
X184993216Y-117638456D01*
X184845646Y-117539853D01*
X184720147Y-117414354D01*
X184621544Y-117266784D01*
X184553624Y-117102812D01*
X184519000Y-116928741D01*
X184519000Y-116751259D01*
X184553624Y-116577188D01*
X184621544Y-116413216D01*
X184720147Y-116265646D01*
X184845646Y-116140147D01*
X184993216Y-116041544D01*
X185157188Y-115973624D01*
X185306488Y-115943927D01*
X185331258Y-115939000D01*
X185508742Y-115939000D01*
X185533512Y-115943927D01*
G37*
G36*
X213473512Y-115943927D02*
G01*
X213622812Y-115973624D01*
X213786784Y-116041544D01*
X213934354Y-116140147D01*
X214059853Y-116265646D01*
X214158456Y-116413216D01*
X214226376Y-116577188D01*
X214261000Y-116751259D01*
X214261000Y-116928741D01*
X214226376Y-117102812D01*
X214158456Y-117266784D01*
X214059853Y-117414354D01*
X213934354Y-117539853D01*
X213786784Y-117638456D01*
X213622812Y-117706376D01*
X213473512Y-117736073D01*
X213448742Y-117741000D01*
X213271258Y-117741000D01*
X213246488Y-117736073D01*
X213097188Y-117706376D01*
X212933216Y-117638456D01*
X212785646Y-117539853D01*
X212660147Y-117414354D01*
X212561544Y-117266784D01*
X212493624Y-117102812D01*
X212459000Y-116928741D01*
X212459000Y-116751259D01*
X212493624Y-116577188D01*
X212561544Y-116413216D01*
X212660147Y-116265646D01*
X212785646Y-116140147D01*
X212933216Y-116041544D01*
X213097188Y-115973624D01*
X213246488Y-115943927D01*
X213271258Y-115939000D01*
X213448742Y-115939000D01*
X213473512Y-115943927D01*
G37*
G36*
X182993512Y-115943927D02*
G01*
X183142812Y-115973624D01*
X183306784Y-116041544D01*
X183454354Y-116140147D01*
X183579853Y-116265646D01*
X183678456Y-116413216D01*
X183746376Y-116577188D01*
X183781000Y-116751259D01*
X183781000Y-116928741D01*
X183746376Y-117102812D01*
X183678456Y-117266784D01*
X183579853Y-117414354D01*
X183454354Y-117539853D01*
X183306784Y-117638456D01*
X183142812Y-117706376D01*
X182993512Y-117736073D01*
X182968742Y-117741000D01*
X182791258Y-117741000D01*
X182766488Y-117736073D01*
X182617188Y-117706376D01*
X182453216Y-117638456D01*
X182305646Y-117539853D01*
X182180147Y-117414354D01*
X182081544Y-117266784D01*
X182013624Y-117102812D01*
X181979000Y-116928741D01*
X181979000Y-116751259D01*
X182013624Y-116577188D01*
X182081544Y-116413216D01*
X182180147Y-116265646D01*
X182305646Y-116140147D01*
X182453216Y-116041544D01*
X182617188Y-115973624D01*
X182766488Y-115943927D01*
X182791258Y-115939000D01*
X182968742Y-115939000D01*
X182993512Y-115943927D01*
G37*
G36*
X218553512Y-115943927D02*
G01*
X218702812Y-115973624D01*
X218866784Y-116041544D01*
X219014354Y-116140147D01*
X219139853Y-116265646D01*
X219238456Y-116413216D01*
X219306376Y-116577188D01*
X219341000Y-116751259D01*
X219341000Y-116928741D01*
X219306376Y-117102812D01*
X219238456Y-117266784D01*
X219139853Y-117414354D01*
X219014354Y-117539853D01*
X218866784Y-117638456D01*
X218702812Y-117706376D01*
X218553512Y-117736073D01*
X218528742Y-117741000D01*
X218351258Y-117741000D01*
X218326488Y-117736073D01*
X218177188Y-117706376D01*
X218013216Y-117638456D01*
X217865646Y-117539853D01*
X217740147Y-117414354D01*
X217641544Y-117266784D01*
X217573624Y-117102812D01*
X217539000Y-116928741D01*
X217539000Y-116751259D01*
X217573624Y-116577188D01*
X217641544Y-116413216D01*
X217740147Y-116265646D01*
X217865646Y-116140147D01*
X218013216Y-116041544D01*
X218177188Y-115973624D01*
X218326488Y-115943927D01*
X218351258Y-115939000D01*
X218528742Y-115939000D01*
X218553512Y-115943927D01*
G37*
G36*
X180453512Y-115943927D02*
G01*
X180602812Y-115973624D01*
X180766784Y-116041544D01*
X180914354Y-116140147D01*
X181039853Y-116265646D01*
X181138456Y-116413216D01*
X181206376Y-116577188D01*
X181241000Y-116751259D01*
X181241000Y-116928741D01*
X181206376Y-117102812D01*
X181138456Y-117266784D01*
X181039853Y-117414354D01*
X180914354Y-117539853D01*
X180766784Y-117638456D01*
X180602812Y-117706376D01*
X180453512Y-117736073D01*
X180428742Y-117741000D01*
X180251258Y-117741000D01*
X180226488Y-117736073D01*
X180077188Y-117706376D01*
X179913216Y-117638456D01*
X179765646Y-117539853D01*
X179640147Y-117414354D01*
X179541544Y-117266784D01*
X179473624Y-117102812D01*
X179439000Y-116928741D01*
X179439000Y-116751259D01*
X179473624Y-116577188D01*
X179541544Y-116413216D01*
X179640147Y-116265646D01*
X179765646Y-116140147D01*
X179913216Y-116041544D01*
X180077188Y-115973624D01*
X180226488Y-115943927D01*
X180251258Y-115939000D01*
X180428742Y-115939000D01*
X180453512Y-115943927D01*
G37*
G36*
X221093512Y-115943927D02*
G01*
X221242812Y-115973624D01*
X221406784Y-116041544D01*
X221554354Y-116140147D01*
X221679853Y-116265646D01*
X221778456Y-116413216D01*
X221846376Y-116577188D01*
X221881000Y-116751259D01*
X221881000Y-116928741D01*
X221846376Y-117102812D01*
X221778456Y-117266784D01*
X221679853Y-117414354D01*
X221554354Y-117539853D01*
X221406784Y-117638456D01*
X221242812Y-117706376D01*
X221093512Y-117736073D01*
X221068742Y-117741000D01*
X220891258Y-117741000D01*
X220866488Y-117736073D01*
X220717188Y-117706376D01*
X220553216Y-117638456D01*
X220405646Y-117539853D01*
X220280147Y-117414354D01*
X220181544Y-117266784D01*
X220113624Y-117102812D01*
X220079000Y-116928741D01*
X220079000Y-116751259D01*
X220113624Y-116577188D01*
X220181544Y-116413216D01*
X220280147Y-116265646D01*
X220405646Y-116140147D01*
X220553216Y-116041544D01*
X220717188Y-115973624D01*
X220866488Y-115943927D01*
X220891258Y-115939000D01*
X221068742Y-115939000D01*
X221093512Y-115943927D01*
G37*
G36*
X177913512Y-115943927D02*
G01*
X178062812Y-115973624D01*
X178226784Y-116041544D01*
X178374354Y-116140147D01*
X178499853Y-116265646D01*
X178598456Y-116413216D01*
X178666376Y-116577188D01*
X178701000Y-116751259D01*
X178701000Y-116928741D01*
X178666376Y-117102812D01*
X178598456Y-117266784D01*
X178499853Y-117414354D01*
X178374354Y-117539853D01*
X178226784Y-117638456D01*
X178062812Y-117706376D01*
X177913512Y-117736073D01*
X177888742Y-117741000D01*
X177711258Y-117741000D01*
X177686488Y-117736073D01*
X177537188Y-117706376D01*
X177373216Y-117638456D01*
X177225646Y-117539853D01*
X177100147Y-117414354D01*
X177001544Y-117266784D01*
X176933624Y-117102812D01*
X176899000Y-116928741D01*
X176899000Y-116751259D01*
X176933624Y-116577188D01*
X177001544Y-116413216D01*
X177100147Y-116265646D01*
X177225646Y-116140147D01*
X177373216Y-116041544D01*
X177537188Y-115973624D01*
X177686488Y-115943927D01*
X177711258Y-115939000D01*
X177888742Y-115939000D01*
X177913512Y-115943927D01*
G37*
G36*
X223633512Y-115943927D02*
G01*
X223782812Y-115973624D01*
X223946784Y-116041544D01*
X224094354Y-116140147D01*
X224219853Y-116265646D01*
X224318456Y-116413216D01*
X224386376Y-116577188D01*
X224421000Y-116751259D01*
X224421000Y-116928741D01*
X224386376Y-117102812D01*
X224318456Y-117266784D01*
X224219853Y-117414354D01*
X224094354Y-117539853D01*
X223946784Y-117638456D01*
X223782812Y-117706376D01*
X223633512Y-117736073D01*
X223608742Y-117741000D01*
X223431258Y-117741000D01*
X223406488Y-117736073D01*
X223257188Y-117706376D01*
X223093216Y-117638456D01*
X222945646Y-117539853D01*
X222820147Y-117414354D01*
X222721544Y-117266784D01*
X222653624Y-117102812D01*
X222619000Y-116928741D01*
X222619000Y-116751259D01*
X222653624Y-116577188D01*
X222721544Y-116413216D01*
X222820147Y-116265646D01*
X222945646Y-116140147D01*
X223093216Y-116041544D01*
X223257188Y-115973624D01*
X223406488Y-115943927D01*
X223431258Y-115939000D01*
X223608742Y-115939000D01*
X223633512Y-115943927D01*
G37*
G36*
X175373512Y-115943927D02*
G01*
X175522812Y-115973624D01*
X175686784Y-116041544D01*
X175834354Y-116140147D01*
X175959853Y-116265646D01*
X176058456Y-116413216D01*
X176126376Y-116577188D01*
X176161000Y-116751259D01*
X176161000Y-116928741D01*
X176126376Y-117102812D01*
X176058456Y-117266784D01*
X175959853Y-117414354D01*
X175834354Y-117539853D01*
X175686784Y-117638456D01*
X175522812Y-117706376D01*
X175373512Y-117736073D01*
X175348742Y-117741000D01*
X175171258Y-117741000D01*
X175146488Y-117736073D01*
X174997188Y-117706376D01*
X174833216Y-117638456D01*
X174685646Y-117539853D01*
X174560147Y-117414354D01*
X174461544Y-117266784D01*
X174393624Y-117102812D01*
X174359000Y-116928741D01*
X174359000Y-116751259D01*
X174393624Y-116577188D01*
X174461544Y-116413216D01*
X174560147Y-116265646D01*
X174685646Y-116140147D01*
X174833216Y-116041544D01*
X174997188Y-115973624D01*
X175146488Y-115943927D01*
X175171258Y-115939000D01*
X175348742Y-115939000D01*
X175373512Y-115943927D01*
G37*
G36*
X226173512Y-115943927D02*
G01*
X226322812Y-115973624D01*
X226486784Y-116041544D01*
X226634354Y-116140147D01*
X226759853Y-116265646D01*
X226858456Y-116413216D01*
X226926376Y-116577188D01*
X226961000Y-116751259D01*
X226961000Y-116928741D01*
X226926376Y-117102812D01*
X226858456Y-117266784D01*
X226759853Y-117414354D01*
X226634354Y-117539853D01*
X226486784Y-117638456D01*
X226322812Y-117706376D01*
X226173512Y-117736073D01*
X226148742Y-117741000D01*
X225971258Y-117741000D01*
X225946488Y-117736073D01*
X225797188Y-117706376D01*
X225633216Y-117638456D01*
X225485646Y-117539853D01*
X225360147Y-117414354D01*
X225261544Y-117266784D01*
X225193624Y-117102812D01*
X225159000Y-116928741D01*
X225159000Y-116751259D01*
X225193624Y-116577188D01*
X225261544Y-116413216D01*
X225360147Y-116265646D01*
X225485646Y-116140147D01*
X225633216Y-116041544D01*
X225797188Y-115973624D01*
X225946488Y-115943927D01*
X225971258Y-115939000D01*
X226148742Y-115939000D01*
X226173512Y-115943927D01*
G37*
G36*
X172833512Y-115943927D02*
G01*
X172982812Y-115973624D01*
X173146784Y-116041544D01*
X173294354Y-116140147D01*
X173419853Y-116265646D01*
X173518456Y-116413216D01*
X173586376Y-116577188D01*
X173621000Y-116751259D01*
X173621000Y-116928741D01*
X173586376Y-117102812D01*
X173518456Y-117266784D01*
X173419853Y-117414354D01*
X173294354Y-117539853D01*
X173146784Y-117638456D01*
X172982812Y-117706376D01*
X172833512Y-117736073D01*
X172808742Y-117741000D01*
X172631258Y-117741000D01*
X172606488Y-117736073D01*
X172457188Y-117706376D01*
X172293216Y-117638456D01*
X172145646Y-117539853D01*
X172020147Y-117414354D01*
X171921544Y-117266784D01*
X171853624Y-117102812D01*
X171819000Y-116928741D01*
X171819000Y-116751259D01*
X171853624Y-116577188D01*
X171921544Y-116413216D01*
X172020147Y-116265646D01*
X172145646Y-116140147D01*
X172293216Y-116041544D01*
X172457188Y-115973624D01*
X172606488Y-115943927D01*
X172631258Y-115939000D01*
X172808742Y-115939000D01*
X172833512Y-115943927D01*
G37*
G36*
X228713512Y-115943927D02*
G01*
X228862812Y-115973624D01*
X229026784Y-116041544D01*
X229174354Y-116140147D01*
X229299853Y-116265646D01*
X229398456Y-116413216D01*
X229466376Y-116577188D01*
X229501000Y-116751259D01*
X229501000Y-116928741D01*
X229466376Y-117102812D01*
X229398456Y-117266784D01*
X229299853Y-117414354D01*
X229174354Y-117539853D01*
X229026784Y-117638456D01*
X228862812Y-117706376D01*
X228713512Y-117736073D01*
X228688742Y-117741000D01*
X228511258Y-117741000D01*
X228486488Y-117736073D01*
X228337188Y-117706376D01*
X228173216Y-117638456D01*
X228025646Y-117539853D01*
X227900147Y-117414354D01*
X227801544Y-117266784D01*
X227733624Y-117102812D01*
X227699000Y-116928741D01*
X227699000Y-116751259D01*
X227733624Y-116577188D01*
X227801544Y-116413216D01*
X227900147Y-116265646D01*
X228025646Y-116140147D01*
X228173216Y-116041544D01*
X228337188Y-115973624D01*
X228486488Y-115943927D01*
X228511258Y-115939000D01*
X228688742Y-115939000D01*
X228713512Y-115943927D01*
G37*
G36*
X170293512Y-115943927D02*
G01*
X170442812Y-115973624D01*
X170606784Y-116041544D01*
X170754354Y-116140147D01*
X170879853Y-116265646D01*
X170978456Y-116413216D01*
X171046376Y-116577188D01*
X171081000Y-116751259D01*
X171081000Y-116928741D01*
X171046376Y-117102812D01*
X170978456Y-117266784D01*
X170879853Y-117414354D01*
X170754354Y-117539853D01*
X170606784Y-117638456D01*
X170442812Y-117706376D01*
X170293512Y-117736073D01*
X170268742Y-117741000D01*
X170091258Y-117741000D01*
X170066488Y-117736073D01*
X169917188Y-117706376D01*
X169753216Y-117638456D01*
X169605646Y-117539853D01*
X169480147Y-117414354D01*
X169381544Y-117266784D01*
X169313624Y-117102812D01*
X169279000Y-116928741D01*
X169279000Y-116751259D01*
X169313624Y-116577188D01*
X169381544Y-116413216D01*
X169480147Y-116265646D01*
X169605646Y-116140147D01*
X169753216Y-116041544D01*
X169917188Y-115973624D01*
X170066488Y-115943927D01*
X170091258Y-115939000D01*
X170268742Y-115939000D01*
X170293512Y-115943927D01*
G37*
G36*
X216013512Y-115943927D02*
G01*
X216162812Y-115973624D01*
X216326784Y-116041544D01*
X216474354Y-116140147D01*
X216599853Y-116265646D01*
X216698456Y-116413216D01*
X216766376Y-116577188D01*
X216801000Y-116751259D01*
X216801000Y-116928741D01*
X216766376Y-117102812D01*
X216698456Y-117266784D01*
X216599853Y-117414354D01*
X216474354Y-117539853D01*
X216326784Y-117638456D01*
X216162812Y-117706376D01*
X216013512Y-117736073D01*
X215988742Y-117741000D01*
X215811258Y-117741000D01*
X215786488Y-117736073D01*
X215637188Y-117706376D01*
X215473216Y-117638456D01*
X215325646Y-117539853D01*
X215200147Y-117414354D01*
X215101544Y-117266784D01*
X215033624Y-117102812D01*
X214999000Y-116928741D01*
X214999000Y-116751259D01*
X215033624Y-116577188D01*
X215101544Y-116413216D01*
X215200147Y-116265646D01*
X215325646Y-116140147D01*
X215473216Y-116041544D01*
X215637188Y-115973624D01*
X215786488Y-115943927D01*
X215811258Y-115939000D01*
X215988742Y-115939000D01*
X216013512Y-115943927D01*
G37*
M02*
