G04 #@! TF.GenerationSoftware,KiCad,Pcbnew,(5.1.5-0-10_14)*
G04 #@! TF.CreationDate,2021-02-08T21:24:19-05:00*
G04 #@! TF.ProjectId,apple-ii-breadboard-card,6170706c-652d-4696-992d-627265616462,1.1*
G04 #@! TF.SameCoordinates,Original*
G04 #@! TF.FileFunction,Other,Fab,Top*
%FSLAX46Y46*%
G04 Gerber Fmt 4.6, Leading zero omitted, Abs format (unit mm)*
G04 Created by KiCad (PCBNEW (5.1.5-0-10_14)) date 2021-02-08 21:24:19*
%MOMM*%
%LPD*%
G04 APERTURE LIST*
%ADD10C,0.100000*%
%ADD11C,0.150000*%
G04 APERTURE END LIST*
D10*
X232410000Y-115570000D02*
X168910000Y-115570000D01*
X232410000Y-120650000D02*
X232410000Y-115570000D01*
X168910000Y-120650000D02*
X232410000Y-120650000D01*
X168910000Y-115570000D02*
X168910000Y-120650000D01*
D11*
X234362380Y-123538571D02*
X233362380Y-123538571D01*
X233838571Y-123538571D02*
X233838571Y-122967142D01*
X234362380Y-122967142D02*
X233362380Y-122967142D01*
X233838571Y-122490952D02*
X233838571Y-122157619D01*
X234362380Y-122014761D02*
X234362380Y-122490952D01*
X233362380Y-122490952D01*
X233362380Y-122014761D01*
X234076666Y-121633809D02*
X234076666Y-121157619D01*
X234362380Y-121729047D02*
X233362380Y-121395714D01*
X234362380Y-121062380D01*
X234362380Y-120729047D02*
X233362380Y-120729047D01*
X233362380Y-120490952D01*
X233410000Y-120348095D01*
X233505238Y-120252857D01*
X233600476Y-120205238D01*
X233790952Y-120157619D01*
X233933809Y-120157619D01*
X234124285Y-120205238D01*
X234219523Y-120252857D01*
X234314761Y-120348095D01*
X234362380Y-120490952D01*
X234362380Y-120729047D01*
X233838571Y-119729047D02*
X233838571Y-119395714D01*
X234362380Y-119252857D02*
X234362380Y-119729047D01*
X233362380Y-119729047D01*
X233362380Y-119252857D01*
X234362380Y-118252857D02*
X233886190Y-118586190D01*
X234362380Y-118824285D02*
X233362380Y-118824285D01*
X233362380Y-118443333D01*
X233410000Y-118348095D01*
X233457619Y-118300476D01*
X233552857Y-118252857D01*
X233695714Y-118252857D01*
X233790952Y-118300476D01*
X233838571Y-118348095D01*
X233886190Y-118443333D01*
X233886190Y-118824285D01*
X233838571Y-116729047D02*
X233886190Y-116586190D01*
X233933809Y-116538571D01*
X234029047Y-116490952D01*
X234171904Y-116490952D01*
X234267142Y-116538571D01*
X234314761Y-116586190D01*
X234362380Y-116681428D01*
X234362380Y-117062380D01*
X233362380Y-117062380D01*
X233362380Y-116729047D01*
X233410000Y-116633809D01*
X233457619Y-116586190D01*
X233552857Y-116538571D01*
X233648095Y-116538571D01*
X233743333Y-116586190D01*
X233790952Y-116633809D01*
X233838571Y-116729047D01*
X233838571Y-117062380D01*
X234362380Y-115586190D02*
X234362380Y-116062380D01*
X233362380Y-116062380D01*
X233362380Y-115062380D02*
X233362380Y-114871904D01*
X233410000Y-114776666D01*
X233505238Y-114681428D01*
X233695714Y-114633809D01*
X234029047Y-114633809D01*
X234219523Y-114681428D01*
X234314761Y-114776666D01*
X234362380Y-114871904D01*
X234362380Y-115062380D01*
X234314761Y-115157619D01*
X234219523Y-115252857D01*
X234029047Y-115300476D01*
X233695714Y-115300476D01*
X233505238Y-115252857D01*
X233410000Y-115157619D01*
X233362380Y-115062380D01*
X234267142Y-113633809D02*
X234314761Y-113681428D01*
X234362380Y-113824285D01*
X234362380Y-113919523D01*
X234314761Y-114062380D01*
X234219523Y-114157619D01*
X234124285Y-114205238D01*
X233933809Y-114252857D01*
X233790952Y-114252857D01*
X233600476Y-114205238D01*
X233505238Y-114157619D01*
X233410000Y-114062380D01*
X233362380Y-113919523D01*
X233362380Y-113824285D01*
X233410000Y-113681428D01*
X233457619Y-113633809D01*
X234362380Y-113205238D02*
X233362380Y-113205238D01*
X234362380Y-112633809D02*
X233790952Y-113062380D01*
X233362380Y-112633809D02*
X233933809Y-113205238D01*
X200326666Y-117562380D02*
X200326666Y-118276666D01*
X200279047Y-118419523D01*
X200183809Y-118514761D01*
X200040952Y-118562380D01*
X199945714Y-118562380D01*
X200755238Y-117657619D02*
X200802857Y-117610000D01*
X200898095Y-117562380D01*
X201136190Y-117562380D01*
X201231428Y-117610000D01*
X201279047Y-117657619D01*
X201326666Y-117752857D01*
X201326666Y-117848095D01*
X201279047Y-117990952D01*
X200707619Y-118562380D01*
X201326666Y-118562380D01*
X222655238Y-123674142D02*
X222607619Y-123721761D01*
X222464761Y-123769380D01*
X222369523Y-123769380D01*
X222226666Y-123721761D01*
X222131428Y-123626523D01*
X222083809Y-123531285D01*
X222036190Y-123340809D01*
X222036190Y-123197952D01*
X222083809Y-123007476D01*
X222131428Y-122912238D01*
X222226666Y-122817000D01*
X222369523Y-122769380D01*
X222464761Y-122769380D01*
X222607619Y-122817000D01*
X222655238Y-122864619D01*
X223036190Y-123483666D02*
X223512380Y-123483666D01*
X222940952Y-123769380D02*
X223274285Y-122769380D01*
X223607619Y-123769380D01*
X224512380Y-123769380D02*
X224179047Y-123293190D01*
X223940952Y-123769380D02*
X223940952Y-122769380D01*
X224321904Y-122769380D01*
X224417142Y-122817000D01*
X224464761Y-122864619D01*
X224512380Y-122959857D01*
X224512380Y-123102714D01*
X224464761Y-123197952D01*
X224417142Y-123245571D01*
X224321904Y-123293190D01*
X223940952Y-123293190D01*
X224940952Y-123769380D02*
X224940952Y-122769380D01*
X225179047Y-122769380D01*
X225321904Y-122817000D01*
X225417142Y-122912238D01*
X225464761Y-123007476D01*
X225512380Y-123197952D01*
X225512380Y-123340809D01*
X225464761Y-123531285D01*
X225417142Y-123626523D01*
X225321904Y-123721761D01*
X225179047Y-123769380D01*
X224940952Y-123769380D01*
X226702857Y-123245571D02*
X227036190Y-123245571D01*
X227179047Y-123769380D02*
X226702857Y-123769380D01*
X226702857Y-122769380D01*
X227179047Y-122769380D01*
X227607619Y-123769380D02*
X227607619Y-122769380D01*
X227845714Y-122769380D01*
X227988571Y-122817000D01*
X228083809Y-122912238D01*
X228131428Y-123007476D01*
X228179047Y-123197952D01*
X228179047Y-123340809D01*
X228131428Y-123531285D01*
X228083809Y-123626523D01*
X227988571Y-123721761D01*
X227845714Y-123769380D01*
X227607619Y-123769380D01*
X229131428Y-122817000D02*
X229036190Y-122769380D01*
X228893333Y-122769380D01*
X228750476Y-122817000D01*
X228655238Y-122912238D01*
X228607619Y-123007476D01*
X228560000Y-123197952D01*
X228560000Y-123340809D01*
X228607619Y-123531285D01*
X228655238Y-123626523D01*
X228750476Y-123721761D01*
X228893333Y-123769380D01*
X228988571Y-123769380D01*
X229131428Y-123721761D01*
X229179047Y-123674142D01*
X229179047Y-123340809D01*
X228988571Y-123340809D01*
X229607619Y-123245571D02*
X229940952Y-123245571D01*
X230083809Y-123769380D02*
X229607619Y-123769380D01*
X229607619Y-122769380D01*
X230083809Y-122769380D01*
M02*
