G04 #@! TF.GenerationSoftware,KiCad,Pcbnew,(5.1.5-0-10_14)*
G04 #@! TF.CreationDate,2021-02-08T21:24:19-05:00*
G04 #@! TF.ProjectId,apple-ii-breadboard-card,6170706c-652d-4696-992d-627265616462,1.1*
G04 #@! TF.SameCoordinates,Original*
G04 #@! TF.FileFunction,Copper,L2,Bot*
G04 #@! TF.FilePolarity,Positive*
%FSLAX46Y46*%
G04 Gerber Fmt 4.6, Leading zero omitted, Abs format (unit mm)*
G04 Created by KiCad (PCBNEW (5.1.5-0-10_14)) date 2021-02-08 21:24:19*
%MOMM*%
%LPD*%
G04 APERTURE LIST*
%ADD10O,1.700000X1.700000*%
%ADD11R,1.524000X6.350000*%
%ADD12C,1.000000*%
%ADD13C,0.400000*%
G04 APERTURE END LIST*
D10*
X231140000Y-116840000D03*
X231140000Y-119380000D03*
X228600000Y-116840000D03*
X228600000Y-119380000D03*
X226060000Y-116840000D03*
X226060000Y-119380000D03*
X223520000Y-116840000D03*
X223520000Y-119380000D03*
X220980000Y-116840000D03*
X220980000Y-119380000D03*
X218440000Y-116840000D03*
X218440000Y-119380000D03*
X215900000Y-116840000D03*
X215900000Y-119380000D03*
X213360000Y-116840000D03*
X213360000Y-119380000D03*
X210820000Y-116840000D03*
X210820000Y-119380000D03*
X208280000Y-116840000D03*
X208280000Y-119380000D03*
X205740000Y-116840000D03*
X205740000Y-119380000D03*
X203200000Y-116840000D03*
X203200000Y-119380000D03*
X200660000Y-116840000D03*
X200660000Y-119380000D03*
X198120000Y-116840000D03*
X198120000Y-119380000D03*
X195580000Y-116840000D03*
X195580000Y-119380000D03*
X193040000Y-116840000D03*
X193040000Y-119380000D03*
X190500000Y-116840000D03*
X190500000Y-119380000D03*
X187960000Y-116840000D03*
X187960000Y-119380000D03*
X185420000Y-116840000D03*
X185420000Y-119380000D03*
X182880000Y-116840000D03*
X182880000Y-119380000D03*
X180340000Y-116840000D03*
X180340000Y-119380000D03*
X177800000Y-116840000D03*
X177800000Y-119380000D03*
X175260000Y-116840000D03*
X175260000Y-119380000D03*
X172720000Y-116840000D03*
X172720000Y-119380000D03*
X170180000Y-116840000D03*
X170180000Y-119380000D03*
D11*
X231140000Y-128397000D03*
X228600000Y-128397000D03*
X226060000Y-128397000D03*
X223520000Y-128397000D03*
X220980000Y-128397000D03*
X218440000Y-128397000D03*
X215900000Y-128397000D03*
X213360000Y-128397000D03*
X210820000Y-128397000D03*
X208280000Y-128397000D03*
X205740000Y-128397000D03*
X203200000Y-128397000D03*
X200660000Y-128397000D03*
X198120000Y-128397000D03*
X195580000Y-128397000D03*
X193040000Y-128397000D03*
X190500000Y-128397000D03*
X187960000Y-128397000D03*
X185420000Y-128397000D03*
X182880000Y-128397000D03*
X180340000Y-128397000D03*
X177800000Y-128397000D03*
X175260000Y-128397000D03*
X172720000Y-128397000D03*
X170180000Y-128397000D03*
D12*
X168629999Y-118390001D02*
X169330001Y-117689999D01*
X168629999Y-122671999D02*
X168629999Y-118390001D01*
X170180000Y-124222000D02*
X168629999Y-122671999D01*
X169330001Y-117689999D02*
X170180000Y-116840000D01*
X170180000Y-128397000D02*
X170180000Y-124222000D01*
D13*
X173569999Y-117689999D02*
X172720000Y-116840000D01*
X173970001Y-118090001D02*
X173569999Y-117689999D01*
X172720000Y-124822000D02*
X173970001Y-123571999D01*
X173970001Y-123571999D02*
X173970001Y-118090001D01*
X172720000Y-128397000D02*
X172720000Y-124822000D01*
X176109999Y-117689999D02*
X175260000Y-116840000D01*
X176510001Y-118090001D02*
X176109999Y-117689999D01*
X176510001Y-123571999D02*
X176510001Y-118090001D01*
X175260000Y-124822000D02*
X176510001Y-123571999D01*
X175260000Y-128397000D02*
X175260000Y-124822000D01*
X178649999Y-117689999D02*
X177800000Y-116840000D01*
X179050001Y-118090001D02*
X178649999Y-117689999D01*
X179050001Y-123571999D02*
X179050001Y-118090001D01*
X177800000Y-124822000D02*
X179050001Y-123571999D01*
X177800000Y-128397000D02*
X177800000Y-124822000D01*
X181590001Y-123571999D02*
X181590001Y-118090001D01*
X180340000Y-124822000D02*
X181590001Y-123571999D01*
X181189999Y-117689999D02*
X180340000Y-116840000D01*
X181590001Y-118090001D02*
X181189999Y-117689999D01*
X180340000Y-128397000D02*
X180340000Y-124822000D01*
X184130001Y-118090001D02*
X183729999Y-117689999D01*
X183729999Y-117689999D02*
X182880000Y-116840000D01*
X184130001Y-123571999D02*
X184130001Y-118090001D01*
X182880000Y-124822000D02*
X184130001Y-123571999D01*
X182880000Y-128397000D02*
X182880000Y-124822000D01*
X186269999Y-117689999D02*
X185420000Y-116840000D01*
X186670001Y-118090001D02*
X186269999Y-117689999D01*
X186670001Y-123571999D02*
X186670001Y-118090001D01*
X185420000Y-124822000D02*
X186670001Y-123571999D01*
X185420000Y-128397000D02*
X185420000Y-124822000D01*
X188809999Y-117689999D02*
X187960000Y-116840000D01*
X189210001Y-123571999D02*
X189210001Y-118090001D01*
X189210001Y-118090001D02*
X188809999Y-117689999D01*
X187960000Y-124822000D02*
X189210001Y-123571999D01*
X187960000Y-128397000D02*
X187960000Y-124822000D01*
X191750001Y-118090001D02*
X191349999Y-117689999D01*
X190500000Y-124822000D02*
X191750001Y-123571999D01*
X191349999Y-117689999D02*
X190500000Y-116840000D01*
X191750001Y-123571999D02*
X191750001Y-118090001D01*
X190500000Y-128397000D02*
X190500000Y-124822000D01*
X193889999Y-117689999D02*
X193040000Y-116840000D01*
X194290001Y-118090001D02*
X193889999Y-117689999D01*
X194290001Y-123571999D02*
X194290001Y-118090001D01*
X193040000Y-124822000D02*
X194290001Y-123571999D01*
X193040000Y-128397000D02*
X193040000Y-124822000D01*
X196429999Y-117689999D02*
X195580000Y-116840000D01*
X196830001Y-118090001D02*
X196429999Y-117689999D01*
X196830001Y-123571999D02*
X196830001Y-118090001D01*
X195580000Y-124822000D02*
X196830001Y-123571999D01*
X195580000Y-128397000D02*
X195580000Y-124822000D01*
X199370001Y-118090001D02*
X198969999Y-117689999D01*
X198969999Y-117689999D02*
X198120000Y-116840000D01*
X198120000Y-124822000D02*
X199370001Y-123571999D01*
X199370001Y-123571999D02*
X199370001Y-118090001D01*
X198120000Y-128397000D02*
X198120000Y-124822000D01*
X201910001Y-118090001D02*
X201509999Y-117689999D01*
X201910001Y-123571999D02*
X201910001Y-118090001D01*
X200660000Y-124822000D02*
X201910001Y-123571999D01*
X201509999Y-117689999D02*
X200660000Y-116840000D01*
X200660000Y-128397000D02*
X200660000Y-124822000D01*
X204049999Y-117689999D02*
X203200000Y-116840000D01*
X204450001Y-118090001D02*
X204049999Y-117689999D01*
X204450001Y-123571999D02*
X204450001Y-118090001D01*
X203200000Y-124822000D02*
X204450001Y-123571999D01*
X203200000Y-128397000D02*
X203200000Y-124822000D01*
X206990001Y-118090001D02*
X206589999Y-117689999D01*
X206589999Y-117689999D02*
X205740000Y-116840000D01*
X205740000Y-124822000D02*
X206990001Y-123571999D01*
X206990001Y-123571999D02*
X206990001Y-118090001D01*
X205740000Y-128397000D02*
X205740000Y-124822000D01*
X209129999Y-117689999D02*
X208280000Y-116840000D01*
X208280000Y-124822000D02*
X209530001Y-123571999D01*
X209530001Y-118090001D02*
X209129999Y-117689999D01*
X209530001Y-123571999D02*
X209530001Y-118090001D01*
X208280000Y-128397000D02*
X208280000Y-124822000D01*
X212109999Y-118129999D02*
X211669999Y-117689999D01*
X211669999Y-117689999D02*
X210820000Y-116840000D01*
X210820000Y-124822000D02*
X212109999Y-123532001D01*
X212109999Y-123532001D02*
X212109999Y-118129999D01*
X210820000Y-128397000D02*
X210820000Y-124822000D01*
X214610001Y-118090001D02*
X214209999Y-117689999D01*
X214610001Y-123571999D02*
X214610001Y-118090001D01*
X213360000Y-124822000D02*
X214610001Y-123571999D01*
X214209999Y-117689999D02*
X213360000Y-116840000D01*
X213360000Y-128397000D02*
X213360000Y-124822000D01*
X217150001Y-118090001D02*
X216749999Y-117689999D01*
X217150001Y-123571999D02*
X217150001Y-118090001D01*
X215900000Y-124822000D02*
X217150001Y-123571999D01*
X216749999Y-117689999D02*
X215900000Y-116840000D01*
X215900000Y-128397000D02*
X215900000Y-124822000D01*
X219690001Y-118090001D02*
X219289999Y-117689999D01*
X218440000Y-124822000D02*
X219690001Y-123571999D01*
X219289999Y-117689999D02*
X218440000Y-116840000D01*
X219690001Y-123571999D02*
X219690001Y-118090001D01*
X218440000Y-128397000D02*
X218440000Y-124822000D01*
X222230001Y-118090001D02*
X221829999Y-117689999D01*
X222230001Y-123571999D02*
X222230001Y-118090001D01*
X220980000Y-124822000D02*
X222230001Y-123571999D01*
X221829999Y-117689999D02*
X220980000Y-116840000D01*
X220980000Y-128397000D02*
X220980000Y-124822000D01*
X224770001Y-118090001D02*
X224369999Y-117689999D01*
X224770001Y-123571999D02*
X224770001Y-118090001D01*
X224369999Y-117689999D02*
X223520000Y-116840000D01*
X223520000Y-124822000D02*
X224770001Y-123571999D01*
X223520000Y-128397000D02*
X223520000Y-124822000D01*
X226909999Y-117689999D02*
X226060000Y-116840000D01*
X227310001Y-123571999D02*
X227310001Y-118090001D01*
X226060000Y-124822000D02*
X227310001Y-123571999D01*
X227310001Y-118090001D02*
X226909999Y-117689999D01*
X226060000Y-128397000D02*
X226060000Y-124822000D01*
X229449999Y-117689999D02*
X228600000Y-116840000D01*
X229850001Y-118090001D02*
X229449999Y-117689999D01*
X229850001Y-123571999D02*
X229850001Y-118090001D01*
X228600000Y-124822000D02*
X229850001Y-123571999D01*
X228600000Y-128397000D02*
X228600000Y-124822000D01*
D12*
X231989999Y-117689999D02*
X231140000Y-116840000D01*
X231140000Y-124222000D02*
X232690001Y-122671999D01*
X232690001Y-118390001D02*
X231989999Y-117689999D01*
X232690001Y-122671999D02*
X232690001Y-118390001D01*
X231140000Y-128397000D02*
X231140000Y-124222000D01*
M02*
